<svg width="33" height="26" viewBox="0 0 33 26" fill="none" xmlns="http://www.w3.org/2000/svg">
<path d="M21 16.25C16.995 16.25 9 18.4112 9 22.75V26H33V22.75C33 18.4112 25.005 16.25 21 16.25ZM7.5 9.75V4.875H4.5V9.75H0V13H4.5V17.875H7.5V13H12V9.75H7.5ZM21 13C22.5913 13 24.1174 12.3152 25.2426 11.0962C26.3679 9.87721 27 8.22391 27 6.5C27 4.77609 26.3679 3.12279 25.2426 1.90381C24.1174 0.684819 22.5913 0 21 0C19.4087 0 17.8826 0.684819 16.7574 1.90381C15.6321 3.12279 15 4.77609 15 6.5C15 8.22391 15.6321 9.87721 16.7574 11.0962C17.8826 12.3152 19.4087 13 21 13Z" fill="black"/>
</svg>
