<svg width="31" height="30" viewBox="0 0 31 30" fill="none" xmlns="http://www.w3.org/2000/svg">
<path d="M15.625 0C17.5948 0 19.5454 0.387987 21.3653 1.14181C23.1851 1.89563 24.8387 3.00052 26.2316 4.3934C27.6245 5.78628 28.7294 7.43986 29.4832 9.25975C30.237 11.0796 30.625 13.0302 30.625 15C30.625 18.9782 29.0446 22.7936 26.2316 25.6066C23.4186 28.4196 19.6032 30 15.625 30C13.6552 30 11.7046 29.612 9.88475 28.8582C8.06486 28.1044 6.41128 26.9995 5.0184 25.6066C2.20535 22.7936 0.625 18.9782 0.625 15C0.625 11.0218 2.20535 7.20644 5.0184 4.3934C7.83144 1.58035 11.6468 0 15.625 0ZM15.625 3C12.4424 3 9.39015 4.26428 7.13972 6.51472C4.88928 8.76515 3.625 11.8174 3.625 15C3.625 17.775 4.57 20.325 6.145 22.365L22.99 5.52C20.8829 3.88547 18.2917 2.99886 15.625 3ZM15.625 27C18.8076 27 21.8598 25.7357 24.1103 23.4853C26.3607 21.2348 27.625 18.1826 27.625 15C27.625 12.225 26.68 9.675 25.105 7.635L8.26 24.48C10.3671 26.1145 12.9583 27.0011 15.625 27Z" fill="black"/>
</svg>
