<svg width="32" height="30" viewBox="0 0 32 30" fill="none" xmlns="http://www.w3.org/2000/svg">
<path d="M31.5295 16.5L29.7648 18.2647L26.1471 14.6471L27.9118 12.8824C28.0933 12.7045 28.3372 12.6049 28.5913 12.6049C28.8453 12.6049 29.0892 12.7045 29.2707 12.8824L31.5295 15.1412C31.9001 15.5118 31.9001 16.1294 31.5295 16.5ZM14.4118 26.3647L25.106 15.6706L28.7236 19.2882L18.0471 30H14.4118V26.3647ZM14.4118 17.6471C6.61184 17.6471 0.294189 20.8059 0.294189 24.7059V28.2353H10.8824V24.9L17.9412 17.8412C16.7765 17.7 15.5942 17.6471 14.4118 17.6471ZM14.4118 0C12.5397 0 10.7443 0.743695 9.42049 2.06748C8.09671 3.39127 7.35301 5.18671 7.35301 7.05882C7.35301 8.93094 8.09671 10.7264 9.42049 12.0502C10.7443 13.374 12.5397 14.1176 14.4118 14.1176C16.284 14.1176 18.0794 13.374 19.4032 12.0502C20.727 10.7264 21.4707 8.93094 21.4707 7.05882C21.4707 5.18671 20.727 3.39127 19.4032 2.06748C18.0794 0.743695 16.284 0 14.4118 0Z" fill="black"/>
</svg>
