<svg width="38" height="36" viewBox="0 0 38 36" fill="none" xmlns="http://www.w3.org/2000/svg">
<path d="M37.5416 19.4792L35.4583 21.5625L31.1875 17.2917L33.2708 15.2083C33.485 14.9984 33.7729 14.8808 34.0729 14.8808C34.3728 14.8808 34.6608 14.9984 34.875 15.2083L37.5416 17.875C37.9791 18.3125 37.9791 19.0417 37.5416 19.4792ZM17.3333 31.125L29.9583 18.5L34.2291 22.7708L21.625 35.4167H17.3333V31.125ZM17.3333 20.8333C8.12496 20.8333 0.666626 24.5625 0.666626 29.1667V33.3333H13.1666V29.3958L21.5 21.0625C20.125 20.8958 18.7291 20.8333 17.3333 20.8333ZM17.3333 0C15.1232 0 13.0035 0.877973 11.4407 2.44078C9.87793 4.00358 8.99996 6.1232 8.99996 8.33333C8.99996 10.5435 9.87793 12.6631 11.4407 14.2259C13.0035 15.7887 15.1232 16.6667 17.3333 16.6667C19.5434 16.6667 21.663 15.7887 23.2258 14.2259C24.7887 12.6631 25.6666 10.5435 25.6666 8.33333C25.6666 6.1232 24.7887 4.00358 23.2258 2.44078C21.663 0.877973 19.5434 0 17.3333 0Z" fill="black"/>
</svg>
