<svg width="36" height="30" viewBox="0 0 36 30" fill="none" xmlns="http://www.w3.org/2000/svg">
<path d="M28.2353 30L22.9412 24.7059L28.2353 19.4118V22.9412H35.2941V26.4706H28.2353V30ZM14.1176 0C15.9898 0 17.7852 0.743695 19.109 2.06748C20.4328 3.39127 21.1765 5.18671 21.1765 7.05882C21.1765 8.93094 20.4328 10.7264 19.109 12.0502C17.7852 13.374 15.9898 14.1176 14.1176 14.1176C12.2455 14.1176 10.4501 13.374 9.1263 12.0502C7.80252 10.7264 7.05882 8.93094 7.05882 7.05882C7.05882 5.18671 7.80252 3.39127 9.1263 2.06748C10.4501 0.743695 12.2455 0 14.1176 0V0ZM14.1176 17.6471C16.1471 17.6471 18.0882 17.8588 19.8353 18.2471C18.4093 20.0975 17.6394 22.3697 17.6471 24.7059C17.6471 25.9412 17.8588 27.1235 18.2471 28.2353H0V24.7059C0 20.8059 6.31765 17.6471 14.1176 17.6471Z" fill="black"/>
</svg>
