<svg width="42" height="36" viewBox="0 0 42 36" fill="none" xmlns="http://www.w3.org/2000/svg">
<path d="M33.3333 35.4167L27.0833 29.1667L33.3333 22.9167V27.0833H41.6667V31.25H33.3333V35.4167ZM16.6667 0C18.8768 0 20.9964 0.877973 22.5592 2.44078C24.122 4.00358 25 6.1232 25 8.33333C25 10.5435 24.122 12.6631 22.5592 14.2259C20.9964 15.7887 18.8768 16.6667 16.6667 16.6667C14.4565 16.6667 12.3369 15.7887 10.7741 14.2259C9.21131 12.6631 8.33333 10.5435 8.33333 8.33333C8.33333 6.1232 9.21131 4.00358 10.7741 2.44078C12.3369 0.877973 14.4565 0 16.6667 0ZM16.6667 20.8333C19.0625 20.8333 21.3542 21.0833 23.4167 21.5417C21.7332 23.7262 20.8243 26.4087 20.8333 29.1667C20.8333 30.625 21.0833 32.0208 21.5417 33.3333H0V29.1667C0 24.5625 7.45833 20.8333 16.6667 20.8333Z" fill="black"/>
</svg>
