<svg width="37" height="30" viewBox="0 0 37 30" fill="none" xmlns="http://www.w3.org/2000/svg">
<path d="M30.8074 30V26.4706H23.7485V22.9412H30.8074V19.4118L36.1015 24.7059L30.8074 30ZM14.925 0C16.7971 0 18.5926 0.743695 19.9164 2.06748C21.2401 3.39127 21.9838 5.18671 21.9838 7.05882C21.9838 8.93094 21.2401 10.7264 19.9164 12.0502C18.5926 13.374 16.7971 14.1176 14.925 14.1176C13.0529 14.1176 11.2575 13.374 9.93368 12.0502C8.60989 10.7264 7.8662 8.93094 7.8662 7.05882C7.8662 5.18671 8.60989 3.39127 9.93368 2.06748C11.2575 0.743695 13.0529 0 14.925 0ZM14.925 17.6471C16.9544 17.6471 18.8956 17.8588 20.6427 18.2471C19.2166 20.0975 18.4468 22.3698 18.4544 24.7059C18.4544 25.9412 18.6662 27.1235 19.0544 28.2353H0.807373V24.7059C0.807373 20.8059 7.12502 17.6471 14.925 17.6471Z" fill="black"/>
</svg>
