<svg width="43" height="36" viewBox="0 0 43 36" fill="none" xmlns="http://www.w3.org/2000/svg">
<path d="M36.2864 35.4167V31.25H27.9531V27.0833H36.2864V22.9167L42.5364 29.1667L36.2864 35.4167ZM17.5364 0C19.7466 0 21.8662 0.877973 23.429 2.44078C24.9918 4.00358 25.8698 6.1232 25.8698 8.33333C25.8698 10.5435 24.9918 12.6631 23.429 14.2259C21.8662 15.7887 19.7466 16.6667 17.5364 16.6667C15.3263 16.6667 13.2067 15.7887 11.6439 14.2259C10.0811 12.6631 9.20308 10.5435 9.20308 8.33333C9.20308 6.1232 10.0811 4.00358 11.6439 2.44078C13.2067 0.877973 15.3263 0 17.5364 0ZM17.5364 20.8333C19.9323 20.8333 22.2239 21.0833 24.2864 21.5417C22.6029 23.7262 21.6941 26.4087 21.7031 29.1667C21.7031 30.625 21.9531 32.0208 22.4114 33.3333H0.869751V29.1667C0.869751 24.5625 8.32808 20.8333 17.5364 20.8333Z" fill="black"/>
</svg>
