<svg width="36" height="30" viewBox="0 0 36 30" fill="none" xmlns="http://www.w3.org/2000/svg">
<path d="M32.9131 15.4528L35.4588 18.0167L23.5847 30L17.2748 23.6356L19.8206 21.0716L23.5847 24.8539L32.9131 15.4528ZM12.7288 23.6392L18.184 29.0944H0V25.4576C0 21.439 6.51352 18.184 14.5472 18.184L17.9804 18.3877L12.7288 23.6392ZM14.5472 0C16.4763 0 18.3264 0.766324 19.6904 2.13039C21.0545 3.49446 21.8208 5.34453 21.8208 7.27361C21.8208 9.20269 21.0545 11.0528 19.6904 12.4168C18.3264 13.7809 16.4763 14.5472 14.5472 14.5472C12.6181 14.5472 10.7681 13.7809 9.404 12.4168C8.03993 11.0528 7.27361 9.20269 7.27361 7.27361C7.27361 5.34453 8.03993 3.49446 9.404 2.13039C10.7681 0.766324 12.6181 0 14.5472 0Z" fill="black"/>
</svg>
